<?xml version="1.0" standalone="no"?>
<!DOCTYPE svg PUBLIC "-//W3C//DTD SVG 20010904//EN"
 "http://www.w3.org/TR/2001/REC-SVG-20010904/DTD/svg10.dtd">
<svg version="1.0" xmlns="http://www.w3.org/2000/svg"
 width="1024.000000pt" height="1024.000000pt" viewBox="0 0 1024.000000 1024.000000"
 preserveAspectRatio="xMidYMid meet">

<g transform="translate(0.000000,1024.000000) scale(0.100000,-0.100000)"
fill="#000000" stroke="none">
<path d="M1052 6300 c-47 -19 -51 -51 -48 -385 1 -170 6 -318 10 -328 5 -10
17 -22 27 -28 12 -6 143 -10 341 -9 316 0 322 0 345 22 l23 21 0 333 c0 312
-1 333 -19 355 l-19 24 -319 2 c-181 1 -328 -2 -341 -7z m662 -21 l26 -20 0
-331 c0 -294 -2 -333 -17 -350 -15 -17 -39 -18 -341 -18 -289 0 -327 2 -344
17 -17 15 -18 39 -18 349 l0 333 26 20 c26 20 38 21 334 21 296 0 308 -1 334
-21z"/>
<path d="M1178 6133 c-15 -16 -17 -45 -18 -198 0 -99 -1 -186 0 -192 1 -31 46
-42 213 -53 194 -12 221 -6 232 53 12 61 1 375 -13 389 -9 10 -65 14 -205 16
-177 3 -194 2 -209 -15z m409 -6 c12 -13 16 -358 4 -390 -6 -15 -21 -31 -33
-36 -29 -11 -344 6 -369 20 -18 9 -19 24 -19 195 0 113 4 193 11 205 10 20 19
20 204 17 106 -2 197 -7 202 -11z"/>
<path d="M1307 6004 c-4 -4 -7 -40 -7 -80 l0 -72 30 -4 c17 -3 55 -3 86 0 l55
5 -3 76 -3 76 -75 3 c-42 1 -79 0 -83 -4z m153 -74 l0 -70 -75 0 -75 0 0 70 0
70 75 0 75 0 0 -70z"/>
<path d="M1960 6290 c-18 -18 -20 -33 -20 -134 0 -63 3 -121 6 -130 5 -12 21
-16 70 -16 l63 0 -1 53 c-1 29 2 59 6 65 4 8 35 12 82 12 l75 0 -3 -147 -3
-148 -145 0 -145 0 -3 -225 c-1 -137 -6 -228 -13 -235 -6 -6 -101 -12 -237
-15 -258 -6 -240 2 -227 -96 l6 -53 142 -3 142 -3 5 -65 c5 -60 7 -65 28 -64
12 0 45 1 72 2 l50 2 -2 48 -1 47 -4 -41 -4 -42 -57 -5 c-31 -2 -60 -3 -64 0
-5 2 -8 30 -8 63 0 43 -4 59 -16 64 -9 3 -73 6 -144 6 l-129 0 -6 54 c-4 30
-4 59 0 65 4 7 79 11 224 11 197 0 219 2 234 18 14 15 17 51 19 238 l3 219
135 -4 c111 -2 138 0 148 12 9 11 12 55 10 158 l-3 144 -77 3 c-72 3 -78 1
-93 -21 -11 -18 -14 -36 -9 -66 l7 -42 -59 3 -59 3 -3 114 c-2 89 1 119 13
137 l15 24 461 0 c471 0 487 -1 516 -39 10 -12 12 -232 13 -953 l0 -937 -23
-27 -24 -27 -474 2 c-418 2 -476 4 -492 18 -16 15 -17 35 -15 202 l3 186 133
5 c154 6 162 10 162 93 0 77 -10 87 -83 87 l-63 0 -2 147 c-1 81 -6 151 -10
155 -4 4 -6 -65 -4 -152 l3 -160 62 0 c36 0 68 -5 75 -12 14 -14 16 -106 2
-128 -7 -11 -40 -16 -145 -20 -106 -4 -138 -8 -145 -20 -13 -21 -6 -351 8
-377 6 -11 18 -23 25 -26 7 -3 225 -6 483 -8 492 -3 501 -2 524 41 7 12 10
338 10 960 l0 942 -29 29 -29 29 -471 0 c-458 0 -472 -1 -491 -20z"/>
<path d="M2544 6131 c-107 -49 -184 -226 -171 -391 8 -101 23 -133 99 -228 67
-83 70 -89 65 -129 -2 -24 -1 -40 4 -37 5 3 9 24 9 48 0 37 -7 50 -56 107 -31
35 -68 89 -83 119 -23 48 -26 67 -26 155 1 193 80 334 203 360 49 10 133 -34
173 -91 52 -77 72 -146 73 -264 0 -96 -2 -111 -26 -160 -15 -30 -53 -84 -84
-119 l-56 -64 6 -126 c4 -69 9 -157 11 -196 14 -220 27 -568 21 -590 -8 -30
-60 -65 -97 -65 -31 0 -77 33 -89 64 -4 12 -1 161 6 331 8 171 13 344 12 385
-3 69 -33 -547 -33 -668 0 -49 3 -56 37 -88 24 -22 48 -34 65 -34 36 0 90 33
105 64 10 23 4 239 -17 616 -2 41 -7 125 -10 186 l-6 111 57 69 c73 88 102
152 110 239 10 116 -29 264 -89 331 -34 39 -114 84 -149 84 -13 0 -41 -9 -64
-19z"/>
<path d="M5706 6058 c-15 -13 -29 -37 -32 -54 -5 -26 0 -38 24 -65 25 -28 37
-34 72 -34 81 0 120 92 64 149 -35 34 -92 36 -128 4z m119 -13 c50 -49 17
-125 -55 -125 -53 0 -80 23 -80 70 0 72 84 107 135 55z"/>
<path d="M4140 5605 l0 -465 80 0 80 0 0 219 c0 210 1 219 23 252 33 49 80 71
145 66 44 -3 59 -10 85 -36 l32 -31 3 -235 3 -235 80 0 81 0 -4 253 -3 252
-28 50 c-51 91 -131 132 -240 122 -59 -5 -143 -45 -154 -73 -16 -42 -23 4 -23
156 l0 170 -80 0 -80 0 0 -465z m128 449 c22 -6 22 -9 22 -165 0 -96 4 -160
10 -164 6 -4 29 10 51 29 109 93 295 60 356 -64 24 -48 25 -69 24 -397 l-1
-143 -59 0 c-41 0 -60 4 -64 14 -3 7 -6 107 -7 221 -1 216 -5 239 -47 278 -44
39 -146 37 -204 -4 -53 -38 -59 -67 -59 -298 l0 -211 -70 0 -70 0 0 448 c0
247 3 452 7 455 8 9 80 9 111 1z"/>
<path d="M7883 6055 c-83 -23 -153 -63 -209 -121 -105 -107 -154 -277 -124
-435 49 -260 364 -441 601 -345 l64 26 42 -48 c23 -26 42 -51 43 -56 0 -8 85
-1 134 12 l27 7 -61 79 c-33 43 -60 80 -60 81 0 1 20 32 44 68 73 109 90 163
90 297 1 114 1 117 -37 193 -64 130 -173 218 -305 246 -71 15 -185 13 -249 -4z
m224 -150 c63 -19 143 -88 173 -151 32 -64 33 -219 3 -284 -11 -25 -27 -54
-35 -64 -14 -18 -17 -16 -56 36 l-42 55 -81 -18 c-44 -9 -83 -19 -85 -22 -3
-2 27 -39 67 -81 82 -88 80 -91 -36 -90 -113 1 -205 54 -262 152 -22 37 -28
61 -31 132 -5 103 13 176 58 238 68 94 202 134 327 97z"/>
<path d="M3370 5594 l0 -455 223 4 c134 2 236 8 258 15 50 17 128 88 150 137
25 55 24 137 -2 192 -16 33 -74 92 -118 120 -2 1 13 16 32 33 58 50 80 109 75
190 -8 112 -62 176 -173 205 -43 11 -111 15 -252 15 l-193 0 0 -456z m467 427
c18 -7 30 -17 27 -22 -3 -5 1 -6 9 -3 20 7 84 -67 96 -113 25 -90 6 -161 -62
-231 l-42 -43 56 -49 c90 -79 112 -166 65 -266 -25 -54 -67 -92 -132 -121 -32
-14 -78 -18 -256 -21 l-218 -4 0 447 0 447 213 -4 c136 -3 224 -9 244 -17z"/>
<path d="M3536 5927 c-14 -11 -16 -30 -14 -142 l3 -130 112 0 c97 0 115 3 139
21 47 35 67 70 68 118 1 53 -24 93 -75 117 -45 22 -209 33 -233 16z m230 -23
c90 -43 84 -183 -9 -227 -25 -12 -62 -17 -131 -17 l-96 0 0 123 c0 68 3 127 7
130 14 15 194 7 229 -9z"/>
<path d="M3524 5537 c-2 -7 -3 -74 -2 -148 l3 -134 113 2 c130 2 173 17 209
72 49 73 21 165 -61 202 -51 23 -253 28 -262 6z m277 -24 c40 -25 59 -59 59
-104 0 -41 -26 -94 -55 -113 -28 -18 -133 -36 -217 -36 l-58 0 0 141 0 141
118 -3 c100 -3 122 -7 153 -26z"/>
<path d="M8605 5953 c1 -54 3 -259 3 -455 l2 -358 83 0 82 0 -3 175 -3 176 73
-3 73 -3 33 -50 c18 -27 64 -105 103 -172 l72 -123 88 0 89 0 -49 83 c-27 45
-77 127 -110 182 -55 88 -60 101 -45 110 87 52 111 74 137 124 22 44 27 68 27
125 0 39 -5 87 -10 107 -15 53 -80 122 -142 150 -50 23 -66 24 -279 27 l-227
3 3 -98z m381 -44 c66 -17 104 -65 104 -132 0 -112 -63 -156 -222 -157 l-98 0
0 150 0 150 86 0 c47 0 105 -5 130 -11z"/>
<path d="M5133 5811 c-99 -25 -189 -95 -228 -177 -59 -125 -26 -313 72 -410
58 -56 134 -88 223 -92 106 -5 176 22 252 98 48 48 60 68 78 129 56 183 -14
355 -172 426 -66 30 -165 41 -225 26z m191 -26 c81 -28 143 -83 184 -160 23
-44 26 -62 26 -145 1 -77 -4 -104 -22 -143 -36 -81 -80 -127 -151 -161 -58
-27 -76 -31 -151 -30 -97 0 -155 21 -220 80 -83 76 -122 242 -85 370 14 49 27
69 76 117 43 42 66 58 80 54 10 -3 17 -1 14 4 -8 12 82 38 135 38 25 0 76 -10
114 -24z"/>
<path d="M5163 5690 c-83 -18 -136 -89 -141 -191 -9 -161 82 -260 221 -238 73
12 108 37 140 99 25 49 28 63 24 126 -3 50 -11 83 -28 113 -39 70 -132 109
-216 91z m162 -44 c117 -90 88 -328 -46 -366 -145 -42 -249 43 -249 203 0 60
33 140 69 164 44 30 54 33 122 30 55 -2 72 -7 104 -31z"/>
<path d="M6177 5804 c-67 -21 -130 -85 -146 -148 -6 -27 -11 -50 -9 -51 2 -1
31 -5 66 -8 l63 -5 14 35 c19 45 39 60 92 69 54 8 96 -2 127 -31 22 -20 26
-33 26 -77 l0 -53 -107 0 c-126 0 -189 -18 -250 -70 -65 -55 -79 -145 -36
-230 33 -65 90 -102 174 -112 63 -7 169 20 205 54 l26 24 19 -20 c37 -40 85
-55 157 -52 20 1 22 6 22 55 0 52 -1 55 -27 58 l-28 3 -5 215 c-5 236 -9 252
-70 304 -63 53 -210 72 -313 40z m266 -24 c93 -44 107 -87 107 -337 l0 -194
30 -17 c25 -14 30 -23 30 -54 l0 -38 -46 0 c-49 0 -107 28 -118 55 -7 20 -30
19 -47 -2 -38 -45 -160 -72 -240 -53 -154 37 -211 241 -91 324 67 46 118 59
237 60 l110 1 3 52 c4 62 -8 87 -51 113 -68 42 -177 16 -209 -50 -17 -32 -20
-34 -65 -31 -26 1 -51 5 -55 7 -12 8 22 88 50 117 54 57 121 78 232 73 51 -3
91 -11 123 -26z"/>
<path d="M6218 5438 c-56 -15 -89 -60 -86 -113 2 -24 6 -41 9 -39 4 2 10 -3
13 -12 8 -20 67 -44 108 -44 50 1 115 34 138 72 15 25 20 47 18 88 l-3 55 -80
2 c-44 1 -97 -3 -117 -9z m190 -59 c-4 -56 -8 -65 -40 -95 -44 -40 -93 -51
-150 -33 -69 23 -95 88 -56 142 21 28 87 46 172 47 l78 0 -4 -61z"/>
<path d="M7027 5806 c-27 -7 -63 -27 -81 -45 -17 -17 -35 -31 -39 -31 -4 0 -7
18 -7 40 l0 41 -72 -3 -73 -3 -3 -332 -2 -333 80 0 80 0 0 221 c0 249 4 265
72 300 66 34 157 18 190 -33 18 -28 27 -135 28 -350 l0 -138 75 0 76 0 -3 258
-3 259 -30 49 c-59 95 -170 133 -288 100z m155 -8 c22 -6 59 -29 83 -50 68
-60 75 -96 75 -370 l0 -228 -65 0 -65 0 0 203 c0 111 -5 218 -10 238 -5 19
-24 48 -41 65 -27 26 -37 29 -99 29 -82 0 -113 -18 -147 -85 -22 -42 -23 -56
-23 -247 l0 -203 -65 0 -65 0 0 325 0 325 65 0 65 0 0 -34 c0 -46 16 -54 48
-23 65 60 158 81 244 55z"/>
<path d="M5688 5431 c-3 -356 -4 -380 -22 -400 -14 -15 -31 -21 -63 -21 l-43
0 0 -47 c0 -27 -3 -58 -6 -70 -6 -22 -3 -23 47 -23 80 0 125 16 173 63 73 70
76 91 76 514 l0 363 -80 0 -79 0 -3 -379z m150 -8 l-3 -378 -28 -50 c-42 -76
-111 -115 -202 -115 l-40 0 3 60 4 60 33 0 c95 0 95 1 95 435 l0 365 71 0 70
0 -3 -377z"/>
<path d="M2140 5553 c-47 -9 -60 -31 -60 -98 0 -78 16 -95 86 -95 75 1 86 15
87 105 0 42 -4 80 -9 85 -5 5 -8 -24 -6 -71 2 -52 -1 -85 -8 -95 -15 -17 -111
-19 -128 -2 -16 16 -16 134 1 145 6 4 37 13 67 19 53 11 26 17 -30 7z"/>
<path d="M1026 5357 c-16 -12 -17 -21 -10 -68 l9 -54 5 60 5 60 131 3 131 3 6
-46 c9 -87 14 -84 -152 -88 l-146 -3 151 -2 c168 -2 164 -4 164 63 0 19 -4 45
-10 59 l-10 26 -128 0 c-91 0 -133 -4 -146 -13z"/>
<path d="M1922 5218 c-19 -19 -14 -33 6 -15 10 10 41 17 77 20 l60 3 -65 2
c-41 1 -71 -3 -78 -10z"/>
<path d="M2237 5212 c-10 -10 -17 -25 -17 -33 0 -8 6 -3 13 11 12 23 18 25 84
25 39 0 69 3 66 8 -2 4 -32 7 -67 7 -48 0 -67 -4 -79 -18z"/>
<path d="M2390 5142 c0 -32 -5 -63 -12 -70 -13 -13 -116 -16 -135 -4 -6 4 -13
23 -16 42 l-4 35 -1 -37 c-2 -46 16 -58 92 -58 73 0 86 14 86 91 0 32 -2 59
-5 59 -3 0 -5 -26 -5 -58z"/>
<path d="M1054 5048 c-12 -5 -27 -21 -33 -34 -12 -27 -16 -639 -5 -669 16 -41
48 -45 379 -45 l316 0 24 25 25 24 0 349 c0 310 -2 351 -16 356 -28 11 -667 5
-690 -6z m694 -350 l2 -346 -26 -21 c-26 -20 -38 -21 -331 -21 -318 0 -351 4
-367 45 -3 9 -6 158 -6 331 l0 315 25 25 24 24 338 -2 338 -3 3 -347z"/>
<path d="M1181 4896 c-8 -9 -14 -80 -17 -200 -7 -236 -9 -231 108 -240 276
-20 294 -20 317 3 12 12 21 31 22 44 0 12 3 38 5 57 3 19 2 99 -2 178 -4 105
-10 147 -21 157 -21 22 -395 22 -412 1z m406 -8 c14 -18 25 -230 17 -328 -10
-114 -4 -111 -229 -99 -151 8 -182 12 -193 27 -17 22 -6 393 12 404 6 4 95 8
197 8 138 0 189 -3 196 -12z"/>
<path d="M1310 4685 l0 -85 85 0 85 0 0 79 c0 92 1 91 -101 91 l-69 0 0 -85z
m143 66 c14 -1 17 -11 17 -71 l0 -70 -75 0 -75 0 0 73 0 72 58 -1 c31 -1 65
-2 75 -3z"/>
<path d="M7887 4753 c-4 -3 -7 -19 -7 -34 0 -31 28 -53 54 -43 22 8 31 51 16
69 -13 15 -51 20 -63 8z"/>
<path d="M3441 4733 c-38 -19 -71 -66 -71 -103 0 -14 11 -42 25 -62 20 -29 40
-42 101 -65 86 -32 114 -53 114 -88 0 -26 -42 -55 -80 -55 -32 0 -78 27 -85
50 -8 25 -75 30 -75 5 0 -61 76 -115 160 -115 92 0 150 49 150 128 0 38 -5 49
-34 76 -20 19 -58 39 -94 50 -71 22 -102 47 -102 81 0 54 78 72 128 30 37 -31
92 -35 92 -6 0 23 -42 68 -75 81 -40 15 -116 12 -154 -7z"/>
<path d="M5270 4737 c-50 -16 -116 -86 -130 -139 -16 -57 -9 -135 17 -184 77
-150 309 -150 387 0 25 49 33 141 16 191 -16 49 -66 104 -115 126 -45 21 -121
23 -175 6z m158 -77 c40 -24 62 -73 62 -135 0 -94 -53 -155 -135 -155 -87 0
-145 61 -145 153 0 60 19 107 55 135 37 29 117 30 163 2z"/>
<path d="M6105 4665 l7 -86 -37 26 c-44 29 -86 32 -135 7 -55 -27 -80 -74 -80
-147 0 -48 5 -70 23 -95 45 -66 132 -88 195 -50 40 24 40 24 38 3 -1 -13 8
-19 32 -21 l33 -3 -1 225 -1 226 -41 0 -40 0 7 -85z m-39 -117 c28 -13 44 -49
44 -98 0 -30 -6 -43 -31 -64 -41 -35 -83 -34 -120 3 -67 67 -15 195 71 173 8
-2 25 -8 36 -14z"/>
<path d="M7160 4520 l0 -220 140 0 140 0 0 35 0 35 -100 0 -100 0 0 70 0 70
85 0 c84 0 85 0 85 25 0 24 -2 24 -87 27 l-88 3 0 55 0 55 103 3 102 3 0 29 0
30 -140 0 -140 0 0 -220z"/>
<path d="M3830 4608 c-80 -41 -107 -136 -64 -223 26 -54 63 -77 126 -83 44 -3
59 0 88 20 19 13 43 39 53 58 l17 35 -29 3 c-21 2 -36 -5 -59 -27 -73 -74
-173 0 -146 108 18 73 117 93 152 31 13 -24 24 -30 50 -30 30 0 33 2 26 23
-13 41 -43 75 -84 91 -54 21 -77 20 -130 -6z"/>
<path d="M4156 4609 c-14 -11 -33 -34 -41 -50 l-16 -29 34 0 c20 0 39 7 50 20
35 41 117 18 117 -33 0 -20 -5 -22 -67 -22 -80 0 -116 -19 -133 -71 -10 -28
-9 -40 7 -71 10 -21 29 -44 43 -51 29 -15 88 -9 130 13 24 13 30 13 40 0 7 -8
25 -15 41 -15 24 0 29 4 29 25 0 14 -4 25 -10 25 -6 0 -10 34 -10 83 0 110
-13 153 -53 177 -45 28 -126 27 -161 -1z m128 -165 c25 -10 19 -50 -10 -73
-33 -26 -65 -27 -94 -3 -53 43 31 104 104 76z"/>
<path d="M4567 4611 c-29 -15 -37 -16 -37 -5 0 9 -12 14 -35 14 l-35 0 0 -160
0 -160 35 0 35 0 0 113 c0 102 2 116 20 132 26 23 86 23 109 1 12 -13 17 -42
19 -131 l4 -115 29 0 29 0 0 123 c0 104 -3 127 -20 155 -33 53 -89 66 -153 33z"/>
<path d="M5647 4623 c-4 -3 -7 -78 -7 -165 l0 -158 34 0 34 0 4 106 c3 102 4
107 31 130 16 14 41 24 58 24 27 0 29 3 29 35 0 29 -4 35 -20 35 -28 0 -77
-26 -89 -47 -9 -15 -10 -12 -11 15 0 28 -3 32 -28 32 -16 0 -32 -3 -35 -7z"/>
<path d="M6340 4619 c-60 -25 -90 -76 -91 -154 -1 -64 21 -109 71 -142 39 -27
116 -31 159 -9 27 14 61 56 61 74 0 12 -67 0 -99 -17 -31 -17 -86 -6 -106 22
-30 43 -23 47 101 47 l117 0 -7 46 c-11 86 -59 135 -135 141 -25 1 -57 -2 -71
-8z m114 -80 c14 -17 24 -35 20 -40 -3 -5 -39 -9 -80 -9 -83 0 -94 12 -52 57
32 34 79 31 112 -8z"/>
<path d="M6616 4622 c-2 -4 -4 -77 -3 -162 l2 -155 32 -3 31 -3 4 106 c3 103
4 108 31 131 16 14 41 24 58 24 27 0 29 3 29 35 0 30 -3 35 -24 35 -13 0 -40
-11 -60 -25 l-36 -24 0 24 c0 21 -5 25 -29 25 -17 0 -32 -4 -35 -8z"/>
<path d="M7517 4623 c-4 -3 -7 -78 -7 -165 l0 -159 33 3 32 3 3 109 c2 65 7
116 14 124 21 25 59 34 89 21 38 -15 51 -59 48 -166 l-2 -88 33 0 32 0 -1 119
c-2 133 -13 166 -61 191 -39 20 -79 19 -117 -4 -31 -19 -31 -19 -36 0 -5 19
-46 27 -60 12z"/>
<path d="M7890 4456 c0 -194 -6 -226 -45 -226 -22 0 -25 -4 -25 -35 0 -34 2
-35 36 -35 27 0 43 7 65 31 l29 31 0 204 0 204 -30 0 -30 0 0 -174z"/>
<path d="M8101 4608 c-80 -41 -104 -138 -58 -228 52 -102 199 -108 264 -11 30
45 32 141 3 188 -42 69 -132 91 -209 51z m143 -68 c16 -16 21 -33 21 -75 0
-65 -21 -92 -78 -102 -31 -5 -40 -1 -67 25 -23 24 -30 39 -30 71 0 50 16 86
44 100 30 15 86 5 110 -19z"/>
<path d="M8352 4619 c52 -128 118 -307 118 -319 0 -27 -30 -60 -56 -60 -21 0
-24 -5 -24 -35 0 -33 2 -35 33 -35 39 0 72 21 91 58 7 15 37 90 66 167 29 77
61 161 71 188 l19 47 -35 0 c-39 0 -41 -2 -91 -152 -16 -48 -31 -88 -34 -88
-3 0 -23 52 -44 115 -34 102 -41 115 -62 115 -12 0 -30 3 -40 7 -13 5 -16 3
-12 -8z"/>
<path d="M2073 4583 c-3 -10 -8 -22 -10 -28 -3 -5 4 0 14 12 16 20 28 23 133
26 l115 3 -123 2 c-109 2 -123 0 -129 -15z"/>
<path d="M2366 4554 c-3 -9 -6 -35 -6 -59 0 -30 -5 -45 -16 -49 -9 -3 -69 -6
-134 -6 -131 0 -136 2 -143 65 l-4 40 -1 -42 c-3 -67 9 -73 157 -73 149 0 150
1 156 84 5 57 2 69 -9 40z"/>
<path d="M4846 4385 c-20 -21 -20 -49 0 -69 30 -30 74 -13 74 29 0 43 -46 68
-74 40z"/>
<path d="M6848 4393 c-22 -5 -35 -50 -21 -72 13 -21 57 -26 72 -7 27 33 -9 89
-51 79z"/>
<path d="M8681 4368 c-19 -49 39 -87 74 -48 15 17 16 24 7 45 -16 34 -69 36
-81 3z"/>
</g>
</svg>
